<?xml version="1.0" encoding="UTF-8"?>
<svg id="Layer_2" data-name="Layer 2" xmlns="http://www.w3.org/2000/svg" viewBox="0 0 265.12 80.86">
  <defs>
    <style>
      .cls-1 {
        fill: #ff0028;
      }
    </style>
  </defs>
  <g id="Layer_1-2" data-name="Layer 1">
    <g>
      <g>
        <path class="cls-1" d="M37.89,80.86c-3.58,0-7.17-1.36-9.9-4.09l-1.73-1.73c-1.56-1.56-1.56-4.09,0-5.66,1.56-1.56,4.1-1.56,5.66,0l1.73,1.73c2.34,2.34,6.15,2.34,8.49,0l28.98-28.98c1.13-1.13,1.76-2.64,1.76-4.24s-.62-3.11-1.76-4.24l-1.73-1.73c-1.56-1.56-1.56-4.09,0-5.66,1.56-1.56,4.1-1.56,5.66,0l1.73,1.73c2.64,2.64,4.1,6.16,4.1,9.9s-1.46,7.26-4.1,9.9l-28.98,28.98c-2.73,2.73-6.31,4.09-9.9,4.09Z"/>
        <path class="cls-1" d="M8.66,55.77c-1.02,0-2.05-.39-2.83-1.17l-1.73-1.73c-2.64-2.64-4.1-6.16-4.1-9.9s1.46-7.26,4.1-9.9L33.08,4.09c5.46-5.46,14.34-5.46,19.8,0l1.73,1.73c1.56,1.56,1.56,4.09,0,5.66-1.56,1.56-4.1,1.56-5.66,0l-1.73-1.73c-2.34-2.34-6.15-2.34-8.49,0l-28.98,28.98c-1.13,1.13-1.76,2.64-1.76,4.24s.62,3.11,1.76,4.24l1.73,1.73c1.56,1.56,1.56,4.09,0,5.66-.78.78-1.8,1.17-2.83,1.17Z"/>
        <g>
          <path class="cls-1" d="M21.57,51.92c-1.02,0-2.05-.39-2.83-1.17-1.56-1.56-1.56-4.09,0-5.66l26.11-26.11c1.56-1.56,4.1-1.56,5.66,0,1.56,1.56,1.56,4.09,0,5.66l-26.11,26.11c-.78.78-1.8,1.17-2.83,1.17Z"/>
          <path class="cls-1" d="M32.61,62.96c-1.02,0-2.05-.39-2.83-1.17-1.56-1.56-1.56-4.09,0-5.66l26.11-26.11c1.56-1.56,4.1-1.56,5.66,0,1.56,1.56,1.56,4.09,0,5.66l-26.11,26.11c-.78.78-1.8,1.17-2.83,1.17Z"/>
        </g>
      </g>
      <g>
        <path d="M109.13,61.12V24.43h-11.86c-1.7,0-3.09-1.38-3.09-3.09v-3.03c0-1.7,1.38-3.09,3.09-3.09h33.74c1.7,0,3.09,1.38,3.09,3.09v3.03c0,1.7-1.38,3.09-3.09,3.09h-11.93v36.69c0,1.7-1.38,3.09-3.09,3.09h-3.79c-1.7,0-3.09-1.38-3.09-3.09Z"/>
        <path d="M152.09,64.69c-3.69,0-6.92-.75-9.68-2.25-2.77-1.5-4.91-3.64-6.43-6.43-1.52-2.79-2.28-6.1-2.28-9.93s.77-7.3,2.32-10.13c1.54-2.84,3.7-5.02,6.47-6.54,2.77-1.52,5.95-2.28,9.55-2.28s6.89.79,9.62,2.35c2.72,1.57,4.84,3.76,6.36,6.57,1.52,2.81,2.28,6.18,2.28,10.1s-.75,7.14-2.25,9.93c-1.5,2.79-3.6,4.92-6.3,6.4-2.7,1.48-5.91,2.21-9.65,2.21ZM151.95,55.84c2.12,0,3.83-.46,5.12-1.38,1.29-.92,2.22-2.13,2.8-3.63.58-1.5.86-3.08.86-4.74s-.29-3.25-.86-4.77c-.58-1.52-1.5-2.78-2.77-3.77-1.27-.99-2.99-1.49-5.15-1.49s-3.76.5-5.05,1.49c-1.29.99-2.23,2.25-2.8,3.77-.58,1.52-.86,3.11-.86,4.77s.29,3.3.86,4.77c.58,1.48,1.51,2.68,2.8,3.6,1.29.92,2.97,1.38,5.05,1.38Z"/>
        <path d="M193.52,64.69c-3.69,0-6.92-.75-9.68-2.25-2.77-1.5-4.91-3.64-6.43-6.43-1.52-2.79-2.28-6.1-2.28-9.93s.77-7.3,2.32-10.13c1.54-2.84,3.7-5.02,6.47-6.54,2.77-1.52,5.95-2.28,9.55-2.28s6.89.79,9.62,2.35c2.72,1.57,4.84,3.76,6.36,6.57,1.52,2.81,2.28,6.18,2.28,10.1s-.75,7.14-2.25,9.93c-1.5,2.79-3.6,4.92-6.3,6.4-2.7,1.48-5.91,2.21-9.65,2.21ZM193.38,55.84c2.12,0,3.83-.46,5.12-1.38,1.29-.92,2.22-2.13,2.8-3.63.58-1.5.86-3.08.86-4.74s-.29-3.25-.86-4.77c-.58-1.52-1.5-2.78-2.77-3.77-1.27-.99-2.99-1.49-5.15-1.49s-3.76.5-5.05,1.49c-1.29.99-2.23,2.25-2.8,3.77-.58,1.52-.86,3.11-.86,4.77s.29,3.3.86,4.77c.58,1.48,1.51,2.68,2.8,3.6,1.29.92,2.97,1.38,5.05,1.38Z"/>
        <path d="M217.94,60.63V18.81c0-1.98,1.6-3.58,3.58-3.58h2.52c1.98,0,3.58,1.6,3.58,3.58v41.82c0,1.98-1.6,3.58-3.58,3.58h-2.52c-1.98,0-3.58-1.6-3.58-3.58Z"/>
        <path d="M249.56,64.69c-1.71,0-3.46-.19-5.26-.55s-3.46-1-4.98-1.9c-1.52-.9-2.81-2.12-3.87-3.67-1.06-1.54-1.75-3.47-2.08-5.78h9.82c.28.83.77,1.55,1.49,2.14.71.6,1.54,1.04,2.49,1.31.94.28,1.9.42,2.87.42.65,0,1.29-.05,1.94-.14.65-.09,1.25-.28,1.8-.55s.99-.63,1.31-1.07c.32-.44.48-1,.48-1.69,0-.74-.23-1.31-.69-1.73-.46-.42-1.11-.75-1.94-1-.83-.25-1.78-.5-2.84-.73-1.89-.42-3.92-.88-6.09-1.38-2.17-.51-4.04-1.25-5.6-2.21-.65-.46-1.22-.97-1.73-1.52-.51-.55-.92-1.18-1.25-1.87-.32-.69-.58-1.42-.76-2.18-.18-.76-.28-1.58-.28-2.46,0-1.98.43-3.68,1.28-5.08.85-1.41,1.99-2.55,3.42-3.42,1.43-.88,3.02-1.51,4.77-1.9,1.75-.39,3.55-.59,5.4-.59,2.49,0,4.8.4,6.92,1.21,2.12.81,3.87,2.05,5.26,3.74,1.38,1.68,2.24,3.86,2.56,6.54h-9.27c-.18-1.01-.81-1.83-1.87-2.46-1.06-.62-2.38-.93-3.94-.93-.55,0-1.14.05-1.76.14-.62.09-1.19.25-1.69.48-.51.23-.92.54-1.25.93-.32.39-.48.91-.48,1.56,0,.51.15.97.45,1.38.3.42.74.76,1.31,1.04.58.28,1.28.53,2.11.76,1.57.37,3.15.7,4.74,1,1.59.3,3.01.61,4.25.93,1.52.32,2.92.85,4.19,1.59,1.27.74,2.31,1.74,3.11,3.01.81,1.27,1.21,2.92,1.21,4.95,0,2.31-.46,4.21-1.38,5.71-.92,1.5-2.16,2.69-3.7,3.56-1.55.88-3.23,1.5-5.05,1.87-1.82.37-3.63.55-5.43.55Z"/>
      </g>
    </g>
  </g>
</svg>