<?xml version="1.0" encoding="UTF-8"?>
<svg id="Layer_2" data-name="Layer 2" xmlns="http://www.w3.org/2000/svg" viewBox="0 0 80.87 80.86">
  <defs>
    <style>
      .cls-1 {
        fill: #ff0028;
      }
    </style>
  </defs>
  <g id="Layer_1-2" data-name="Layer 1">
    <g>
      <path class="cls-1" d="M37.89,80.86c-3.58,0-7.17-1.36-9.9-4.09l-1.73-1.73c-1.56-1.56-1.56-4.09,0-5.66,1.56-1.56,4.1-1.56,5.66,0l1.73,1.73c2.34,2.34,6.15,2.34,8.49,0l28.98-28.98c1.13-1.13,1.76-2.64,1.76-4.24s-.62-3.11-1.76-4.24l-1.73-1.73c-1.56-1.56-1.56-4.09,0-5.66,1.56-1.56,4.1-1.56,5.66,0l1.73,1.73c2.64,2.64,4.1,6.16,4.1,9.9s-1.46,7.26-4.1,9.9l-28.98,28.98c-2.73,2.73-6.31,4.09-9.9,4.09Z"/>
      <path class="cls-1" d="M8.66,55.77c-1.02,0-2.05-.39-2.83-1.17l-1.73-1.73c-2.64-2.64-4.1-6.16-4.1-9.9s1.46-7.26,4.1-9.9L33.08,4.09c5.46-5.46,14.34-5.46,19.8,0l1.73,1.73c1.56,1.56,1.56,4.09,0,5.66-1.56,1.56-4.1,1.56-5.66,0l-1.73-1.73c-2.34-2.34-6.15-2.34-8.49,0l-28.98,28.98c-1.13,1.13-1.76,2.64-1.76,4.24s.62,3.11,1.76,4.24l1.73,1.73c1.56,1.56,1.56,4.09,0,5.66-.78.78-1.8,1.17-2.83,1.17Z"/>
      <g>
        <path class="cls-1" d="M21.57,51.92c-1.02,0-2.05-.39-2.83-1.17-1.56-1.56-1.56-4.09,0-5.66l26.11-26.11c1.56-1.56,4.1-1.56,5.66,0,1.56,1.56,1.56,4.09,0,5.66l-26.11,26.11c-.78.78-1.8,1.17-2.83,1.17Z"/>
        <path class="cls-1" d="M32.61,62.96c-1.02,0-2.05-.39-2.83-1.17-1.56-1.56-1.56-4.09,0-5.66l26.11-26.11c1.56-1.56,4.1-1.56,5.66,0,1.56,1.56,1.56,4.09,0,5.66l-26.11,26.11c-.78.78-1.8,1.17-2.83,1.17Z"/>
      </g>
    </g>
  </g>
</svg>